pistolIcon<!DOCTYPE svg PUBLIC "-//W3C//DTD SVG 1.1//EN" "http://www.w3.org/Graphics/SVG/1.1/DTD/svg11.dtd">

<!-- Uploaded to: SVG Repo, www.svgrepo.com, Transformed by: SVG Repo Mixer Tools -->
<svg width="800px" height="800px" viewBox="0 -2.5 85 85" xmlns="http://www.w3.org/2000/svg" fill="#000000">

<g id="SVGRepo_bgCarrier" stroke-width="0"/>

<g id="SVGRepo_tracerCarrier" stroke-linecap="round" stroke-linejoin="round"/>

<g id="SVGRepo_iconCarrier"> <g id="_04-Gun" data-name="04-Gun" transform="translate(-467.5 -107.5)"> <g id="Group_97" data-name="Group 97"> <g id="Group_95" data-name="Group 95"> <path id="Path_111" data-name="Path 111" d="M500,187.5H470a2.5,2.5,0,0,1-2.372-3.291l15-45A2.5,2.5,0,0,1,485,137.5,17.521,17.521,0,0,1,502.5,155v30A2.5,2.5,0,0,1,500,187.5Zm-26.531-5H497.5V155a12.521,12.521,0,0,0-10.739-12.377Z" fill="#fd8f50"/> </g> <g id="Group_96" data-name="Group 96"> <path id="Path_112" data-name="Path 112" d="M545,187.5H525a2.5,2.5,0,0,1-2.5-2.5V165a2.5,2.5,0,0,1,2.5-2.5h20a7.5,7.5,0,0,1,5.586,12.5A7.5,7.5,0,0,1,545,187.5Zm-17.5-5H545a2.5,2.5,0,0,0,0-5H527.5Zm0-10H545a2.5,2.5,0,0,0,0-5H527.5Z" fill="#c74a2e"/> </g> <path id="Path_113" data-name="Path 113" d="M550,117.5h-2.5V110a2.5,2.5,0,0,0-2.5-2.5h-5a2.5,2.5,0,0,0-2.236,1.382l-4.309,8.618H505a12.473,12.473,0,0,0-10,5.032,12.473,12.473,0,0,0-10-5.032,2.5,2.5,0,0,0,0,5,7.5,7.5,0,0,1,0,15,2.5,2.5,0,0,0,0,5A12.514,12.514,0,0,0,497.5,130a7.508,7.508,0,0,1,7.5-7.5h17.5v5H505a2.5,2.5,0,0,0-2.5,2.5v20a2.5,2.5,0,0,0,2.5,2.5h17.062a7.506,7.506,0,0,1-7.062,5h-5A12.514,12.514,0,0,0,497.5,170a2.5,2.5,0,0,0,5,0,7.508,7.508,0,0,1,7.5-7.5h5A12.514,12.514,0,0,0,527.5,150V137.5H550a2.5,2.5,0,0,0,2.5-2.5V120A2.5,2.5,0,0,0,550,117.5Zm-8.455-5h.955v5h-3.455Zm-34.045,20h15v5H515a2.5,2.5,0,0,0,0,5h7.5v5h-15Zm40,0h-20v-10h20Z" fill="#c74a2e"/> </g> </g> </g>

</svg>